<svg width="99" height="94" viewBox="0 0 99 94" fill="none" xmlns="http://www.w3.org/2000/svg">
<rect x="0.681641" y="3" width="93.4821" height="90" rx="45" fill="white"/>
<path fill-rule="evenodd" clip-rule="evenodd" d="M49.5001 91C74.7408 91 95.2025 71.3005 95.2025 47C95.2025 22.6995 74.7408 3 49.5001 3C24.2594 3 3.79771 22.6995 3.79771 47C3.79771 71.3005 24.2594 91 49.5001 91ZM49.5001 94C76.4618 94 98.3185 72.9574 98.3185 47C98.3185 21.0426 76.4618 0 49.5001 0C22.5384 0 0.681641 21.0426 0.681641 47C0.681641 72.9574 22.5384 94 49.5001 94ZM49.5001 48C56.9576 48 63.0031 42.1797 63.0031 35C63.0031 27.8203 56.9576 22 49.5001 22C42.0426 22 35.9971 27.8203 35.9971 35C35.9971 42.1797 42.0426 48 49.5001 48ZM49.5001 51C58.6785 51 66.1191 43.8365 66.1191 35C66.1191 26.1634 58.6785 19 49.5001 19C40.3216 19 32.881 26.1634 32.881 35C32.881 43.8365 40.3216 51 49.5001 51ZM27.0892 59.3644C27.3698 61.22 27.8964 63.0375 28.6591 64.7718C29.829 67.4322 31.5319 69.8448 33.6703 71.8717C35.8087 73.8985 38.3409 75.5001 41.1222 76.5848C43.9035 77.6695 46.8795 78.2162 49.8803 78.1937C52.881 78.1711 55.8478 77.5798 58.6112 76.4534C61.3746 75.327 63.8805 73.6876 65.9858 71.6288C68.0911 69.5701 69.7546 67.1322 70.8813 64.4545C71.6158 62.7089 72.1128 60.8837 72.3633 59.0242L27.0892 59.3644ZM23.9474 59.388C24.2485 61.6383 24.867 63.8435 25.7896 65.9414C27.1191 68.9647 29.0541 71.7062 31.4842 74.0095C33.9142 76.3128 36.7916 78.1327 39.9522 79.3653C43.1128 80.598 46.4946 81.2192 49.9046 81.1936C53.3146 81.168 56.6859 80.496 59.8261 79.216C62.9663 77.936 65.8139 76.073 68.2063 73.7335C70.5987 71.394 72.489 68.6237 73.7694 65.5809C74.6579 63.4693 75.2405 61.2552 75.5051 59.0006C75.6217 58.0062 75.6765 57.004 75.6684 55.9992L23.7354 56.3895C23.7436 57.3943 23.8146 58.3955 23.9474 59.388Z" fill="#714534"/>
</svg>
