<svg width="40" height="40" viewBox="0 0 40 40" fill="none" xmlns="http://www.w3.org/2000/svg">
<path d="M28.0067 23.8199C25.7784 23.4533 24.7734 21.1699 24.7334 21.0749C24.61 20.8249 24.5834 20.6333 24.6467 20.4883C24.7684 20.2033 25.235 20.0549 25.5434 19.9583C25.6253 19.933 25.7065 19.9053 25.7867 19.8749C26.0335 19.7902 26.2599 19.6551 26.4517 19.4783C26.5144 19.42 26.5646 19.3497 26.5992 19.2715C26.6339 19.1933 26.6523 19.1088 26.6534 19.0233C26.6484 18.7566 26.4434 18.5199 26.1184 18.4049C26.003 18.3579 25.8796 18.3335 25.755 18.3333C25.6391 18.3321 25.5243 18.356 25.4184 18.4033C25.2015 18.5128 24.9655 18.5796 24.7234 18.5999C24.6443 18.5977 24.5663 18.5807 24.4934 18.5499L24.5134 18.2283L24.5167 18.1799C24.5884 17.0533 24.6767 15.6499 24.3034 14.8166C24.0634 14.2672 23.7167 13.7709 23.2834 13.3566C22.9261 13.0201 22.5133 12.7477 22.0634 12.5516C21.4627 12.2903 20.8151 12.1542 20.16 12.1516L19.8317 12.1533C19.176 12.1566 18.5279 12.2932 17.9267 12.5549C17.4781 12.7509 17.0665 13.0227 16.71 13.3583C16.2792 13.7723 15.9342 14.2673 15.695 14.8149C15.3234 15.6483 15.4117 17.0499 15.4817 18.1783L15.505 18.5499C15.4185 18.5856 15.3253 18.6027 15.2317 18.5999C15.0217 18.5999 14.7717 18.5333 14.49 18.4016C14.401 18.3617 14.3043 18.3418 14.2067 18.3433C14.0307 18.3459 13.8584 18.3941 13.7067 18.4833C13.6194 18.5288 13.5428 18.5926 13.4821 18.6702C13.4215 18.7478 13.3781 18.8375 13.355 18.9333C13.3334 19.0499 13.3334 19.2833 13.5917 19.5183C13.735 19.6466 13.9434 19.7683 14.2134 19.8733C14.2834 19.9016 14.3684 19.9283 14.4567 19.9566C14.765 20.0533 15.2334 20.2016 15.355 20.4866C15.4167 20.6316 15.3884 20.8233 15.275 21.0533C15.2384 21.1399 14.9734 21.7366 14.4284 22.3699C14.1355 22.7156 13.7942 23.017 13.415 23.2649C12.9842 23.5449 12.5002 23.7327 11.9934 23.8166C11.8982 23.8317 11.812 23.8818 11.7516 23.9569C11.6912 24.0321 11.661 24.127 11.6667 24.2233C11.67 24.2816 11.6834 24.3383 11.7084 24.3933C11.7884 24.5816 11.9734 24.7383 12.2734 24.8766C12.64 25.0466 13.1867 25.1899 13.9034 25.3016C13.94 25.3683 13.9767 25.5416 14.0034 25.6599C14.03 25.7849 14.0584 25.9133 14.0984 26.0499C14.1417 26.1983 14.255 26.3749 14.545 26.3749C14.6567 26.3749 14.7817 26.3499 14.9284 26.3216C15.145 26.2799 15.4367 26.2216 15.8034 26.2216C16.0067 26.2216 16.2167 26.2399 16.4284 26.2766C16.8367 26.3433 17.1884 26.5916 17.595 26.8783C18.1917 27.2999 18.8667 27.7766 19.8984 27.7766L19.9817 27.7733L20.1017 27.7766C21.1334 27.7766 21.8084 27.2999 22.405 26.8799C22.8134 26.5933 23.165 26.3449 23.5717 26.2766C24.0695 26.1922 24.5791 26.2058 25.0717 26.3166C25.2334 26.3483 25.3584 26.3633 25.455 26.3633C25.6867 26.3633 25.8434 26.2466 25.9017 26.0433C25.9417 25.9099 25.97 25.7849 25.9984 25.6566C26.0217 25.5449 26.0617 25.3683 26.0984 25.2999C26.8134 25.1866 27.36 25.0449 27.7267 24.8766C28.0267 24.7366 28.21 24.5799 28.2917 24.3933C28.3156 24.3395 28.3297 24.282 28.3334 24.2233C28.3387 24.1273 28.3082 24.0328 28.2479 23.958C28.1876 23.8832 28.1016 23.8351 28.0067 23.8199Z" fill="white"/>
<path d="M10.0007 6.66659C9.1166 6.66659 8.26875 7.01777 7.64363 7.6429C7.01851 8.26802 6.66732 9.11586 6.66732 9.99992V29.9999C6.66732 30.884 7.01851 31.7318 7.64363 32.3569C8.26875 32.9821 9.1166 33.3333 10.0007 33.3333H30.0007C30.8847 33.3333 31.7326 32.9821 32.3577 32.3569C32.9828 31.7318 33.334 30.884 33.334 29.9999V9.99992C33.334 9.11586 32.9828 8.26802 32.3577 7.6429C31.7326 7.01777 30.8847 6.66659 30.0007 6.66659H10.0007ZM10.0007 3.33325H30.0007C31.7688 3.33325 33.4645 4.03563 34.7147 5.28587C35.9649 6.53612 36.6673 8.23181 36.6673 9.99992V29.9999C36.6673 31.768 35.9649 33.4637 34.7147 34.714C33.4645 35.9642 31.7688 36.6666 30.0007 36.6666H10.0007C8.23254 36.6666 6.53685 35.9642 5.28661 34.714C4.03636 33.4637 3.33398 31.768 3.33398 29.9999V9.99992C3.33398 8.23181 4.03636 6.53612 5.28661 5.28587C6.53685 4.03563 8.23254 3.33325 10.0007 3.33325Z" fill="white"/>
</svg>
