<svg width="34" height="33" viewBox="0 0 34 33" fill="none" xmlns="http://www.w3.org/2000/svg">
<path d="M31.2673 0H2.73275C1.224 0 0 1.188 0 2.65238V30.3476C0 31.812 1.224 33 2.73275 33H31.2673C32.776 33 34 31.812 34 30.3476V2.65238C34 1.188 32.776 0 31.2673 0ZM31.2673 30.36C12.2358 30.3559 2.72 30.3518 2.72 30.3476C2.72425 11.8759 2.7285 2.64 2.73275 2.64C21.7642 2.64412 31.28 2.64825 31.28 2.65238C31.2758 21.1241 31.2715 30.36 31.2673 30.36ZM5.0405 14.8933C5.0405 13.5002 6.16981 12.3709 7.56288 12.3709C8.95594 12.3709 10.0852 13.5002 10.0852 14.8932V25.5977C10.0852 26.9908 8.95594 28.1201 7.56288 28.1201C6.16981 28.1201 5.0405 26.9908 5.0405 25.5978V14.8933ZM7.565 10.2176C9.17575 10.2176 10.489 8.94712 10.489 7.37962C10.489 7.00693 10.4134 6.63789 10.2664 6.29357C10.1195 5.94925 9.9041 5.63639 9.63258 5.37286C9.36106 5.10932 9.03872 4.90028 8.68397 4.75765C8.32921 4.61503 7.94899 4.54163 7.565 4.54163C7.18102 4.54163 6.80079 4.61503 6.44603 4.75765C6.09128 4.90028 5.76894 5.10932 5.49742 5.37286C5.2259 5.63639 5.01052 5.94925 4.86358 6.29357C4.71663 6.63789 4.641 7.00693 4.641 7.37962C4.63675 8.94712 5.94575 10.2176 7.565 10.2176ZM18.2877 20.328C18.2877 18.2737 18.6915 16.2855 21.3138 16.2855C23.8978 16.2855 23.936 18.6326 23.936 20.46V25.5999C23.936 26.9918 25.0644 28.1201 26.4563 28.1201C27.8481 28.1201 28.9765 26.9918 28.9765 25.5999V19.4824C28.9765 15.2419 28.033 11.979 22.9288 11.979C20.491 11.979 18.8512 13.2712 18.1681 14.5021C18.1605 14.5158 18.1463 14.5241 18.1307 14.5241C18.1071 14.5241 18.088 14.505 18.088 14.4814V13.4475C18.088 12.8529 17.606 12.3709 17.0114 12.3709H15.6676C14.3309 12.3709 13.2473 13.4545 13.2473 14.7912V25.5999C13.2473 26.9918 14.3756 28.1201 15.7675 28.1201C17.1594 28.1201 18.2877 26.9918 18.2877 25.5999V20.328Z" fill="white"/>
</svg>
