<svg width="35" height="37" viewBox="0 0 35 37" fill="none" xmlns="http://www.w3.org/2000/svg">
<path d="M30.625 12.3333V24.6667C30.625 26.711 29.8568 28.6717 28.4893 30.1173C27.1219 31.5629 25.2672 32.375 23.3333 32.375H11.6667C9.7328 32.375 7.87813 31.5629 6.51068 30.1173C5.14323 28.6717 4.375 26.711 4.375 24.6667V12.3333C4.375 10.289 5.14323 8.32831 6.51068 6.88272C7.87813 5.43713 9.7328 4.625 11.6667 4.625H23.3333C25.2672 4.625 27.1219 5.43713 28.4893 6.88272C29.8568 8.32831 30.625 10.289 30.625 12.3333Z" stroke="white" stroke-width="7" stroke-linecap="round" stroke-linejoin="round"/>
<path d="M14.584 18.5C13.7187 18.5 12.8728 18.7713 12.1534 19.2795C11.4339 19.7877 10.8731 20.51 10.542 21.3551C10.2109 22.2002 10.1242 23.1301 10.2931 24.0273C10.4619 24.9245 10.8785 25.7486 11.4904 26.3954C12.1022 27.0422 12.8818 27.4827 13.7305 27.6611C14.5791 27.8396 15.4588 27.748 16.2582 27.3979C17.0577 27.0479 17.7409 26.4551 18.2217 25.6945C18.7024 24.9339 18.959 24.0397 18.959 23.125V9.25C19.4446 10.7917 21.2923 13.875 24.7923 13.875" stroke="white" stroke-width="6" stroke-linecap="round" stroke-linejoin="round"/>
</svg>
