<svg width="25" height="25" viewBox="0 0 25 25" fill="none" xmlns="http://www.w3.org/2000/svg">
<g clip-path="url(#clip0_204_2599)">
<rect width="25" height="25" fill="white"/>
<path d="M14.2965 5.89832C13.6324 6.91395 11.9137 7.96863 10.3903 8.74988C10.4684 8.82801 10.6246 9.06239 10.7028 9.06239C11.1324 8.86707 11.5621 8.71082 11.9918 8.51551C12.8512 8.12488 13.7106 7.61707 14.4918 7.03113C16.0543 5.78113 16.6403 2.03113 17.7731 1.95301C18.4371 1.95301 19.0621 2.92957 19.5309 3.35926L20.1949 2.6952C20.234 2.65613 19.6871 2.14832 19.6481 2.10926C18.984 1.4452 18.2028 0.742072 17.1481 1.1327C15.7418 1.67957 15.0778 4.76551 14.2965 5.89832ZM17.4215 2.0702C17.3824 2.0702 17.3824 2.0702 17.4215 2.0702V2.0702ZM0.898067 23.7889C0.78088 23.9452 0.741817 24.1014 0.819942 24.1796C0.898067 24.2577 1.09338 24.2186 1.21057 24.1014L2.14807 23.4374L1.56213 22.8514L0.898067 23.7889Z" fill="#93A2AA"/>
<path d="M11.0547 10.2734L14.7266 13.9453L23.8672 4.17969L20.8203 1.13281L11.0547 10.2734Z" fill="#42ADE2"/>
<path d="M3.66016 18.2795L11.3668 10.5732L14.4051 13.6115L6.69844 21.3178L3.66016 18.2795Z" fill="#42ADE2"/>
<path d="M1.25 22.5391L2.46094 23.75L6.71875 21.3281L3.67188 18.2812L1.25 22.5391ZM12.1875 9.14062L15.8594 12.8125L14.7266 13.9453L11.0547 10.2734L12.1875 9.14062Z" fill="#C7D3D8"/>
<path d="M21.0156 1.32812L23.6719 3.98437C24.4141 3.24219 24.4141 2.07031 23.6719 1.32812C22.9297 0.585937 21.7578 0.585937 21.0156 1.32812Z" fill="#42ADE2"/>
<path d="M20.2949 1.46396L20.8473 0.911621L24.1066 4.171L23.5543 4.72334L20.2949 1.46396Z" fill="#C7D3D8"/>
</g>
<defs>
<clipPath id="clip0_204_2599">
<rect width="25" height="25" fill="white"/>
</clipPath>
</defs>
</svg>
