<svg width="36" height="37" viewBox="0 0 36 37" fill="none" xmlns="http://www.w3.org/2000/svg">
<path d="M29.8545 13.2354C29.7834 13.0681 29.6838 12.9152 29.5605 12.7837L20.5605 3.53374C20.4326 3.40699 20.2838 3.30467 20.121 3.23157C20.076 3.20999 20.028 3.19766 19.98 3.1807C19.8545 3.1368 19.7238 3.11036 19.5915 3.10207C19.56 3.09899 19.5315 3.08203 19.5 3.08203H9C7.3455 3.08203 6 4.46491 6 6.16536V30.832C6 32.5325 7.3455 33.9154 9 33.9154H27C28.6545 33.9154 30 32.5325 30 30.832V13.8737C30 13.8413 29.9835 13.812 29.9805 13.7781C29.9732 13.642 29.9474 13.5076 29.904 13.3788C29.889 13.3295 29.8755 13.2817 29.8545 13.2354ZM24.879 12.332H21V8.34528L24.879 12.332ZM9 30.832V6.16536H18V13.8737C18 14.2826 18.158 14.6747 18.4393 14.9638C18.7206 15.2529 19.1022 15.4154 19.5 15.4154H27L27.003 30.832H9Z" fill="#9A684F"/>
<path d="M12 18.4987H24V21.582H12V18.4987ZM12 24.6654H24V27.7487H12V24.6654ZM12 12.332H15V15.4154H12V12.332Z" fill="#9A684F"/>
</svg>
