<svg width="35" height="33" viewBox="0 0 35 33" fill="none" xmlns="http://www.w3.org/2000/svg">
<path d="M33.6 0H1.4C0.625625 0 0 0.589875 0 1.32V31.68C0 32.4101 0.625625 33 1.4 33H33.6C34.3744 33 35 32.4101 35 31.68V1.32C35 0.589875 34.3744 0 33.6 0ZM32.2 26.36C32.2 28.5691 30.382 30.36 28.1728 30.36C25.9637 30.36 24.1456 28.5691 24.1456 26.36V22.651C24.1456 21.3088 25.2337 20.2208 26.5758 20.2208C27.7905 20.2208 28.8186 19.324 28.9835 18.1206L28.9986 18.0107C29.1993 16.5465 28.0613 15.2419 26.5834 15.2419C25.2371 15.2419 24.1456 14.1504 24.1456 12.8041V12.0615C24.1456 10.6177 24.57 9.636 26.7619 9.636H27.1887C28.4969 9.636 29.5575 8.57544 29.5575 7.26717C29.5575 6.07465 28.6688 5.08226 27.4775 5.02868C26.8806 5.00184 26.1994 4.983 25.48 4.983C21.4463 4.983 18.6856 7.30537 18.6856 11.5665V12.9584C18.6856 14.2172 17.6651 15.2377 16.4062 15.2377C15.1474 15.2377 14.1269 16.2583 14.1269 17.5171V17.9351C14.1269 19.1951 15.1484 20.2166 16.4084 20.2166C17.6685 20.2166 18.69 21.2381 18.69 22.4982V26.36C18.69 28.5691 16.8991 30.36 14.69 30.36H6.8C4.59086 30.36 2.8 28.5691 2.8 26.36V6.64C2.8 4.43086 4.59086 2.64 6.8 2.64H28.2C30.4091 2.64 32.2 4.43086 32.2 6.64V26.36Z" fill="white"/>
</svg>
