<svg width="34" height="32" viewBox="0 0 34 32" fill="none" xmlns="http://www.w3.org/2000/svg">
<path d="M0 31.7979H7.41072L8.89286 13.013L10.375 31.7979H17.7857V3.62054H8.89286H0V31.7979Z" fill="black"/>
<path d="M0 0.489746H17.7857V2.05516H0V0.489746Z" fill="black"/>
<path d="M22.5369 8V2.18182H26.3892V3.19602H23.767V4.58239H26.1335V5.59659H23.767V8H22.5369ZM29.4929 8H28.1747L30.1832 2.18182H31.7685L33.7741 8H32.456L30.9986 3.51136H30.9531L29.4929 8ZM29.4105 5.71307H32.5241V6.6733H29.4105V5.71307ZM22.5291 18V12.1818H23.7592V14.5824H26.2564V12.1818H27.4837V18H26.2564V15.5966H23.7592V18H22.5291ZM29.5007 18H28.1825L30.1911 12.1818H31.7763L33.782 18H32.4638L31.0064 13.5114H30.9609L29.5007 18ZM29.4183 15.7131H32.532V16.6733H29.4183V15.7131ZM22.6844 22.1818H24.2015L25.8038 26.0909H25.8719L27.4742 22.1818H28.9913V28H27.7981V24.2131H27.7498L26.2441 27.9716H25.4316L23.9259 24.1989H23.8776V28H22.6844V22.1818ZM33.3149 22.1818V28H32.0847V22.1818H33.3149Z" fill="black"/>
</svg>
